<svg xmlns="http://www.w3.org/2000/svg" width="24" height="15.999" viewBox="0 0 24 15.999">
  <g id="Group_9584" data-name="Group 9584" transform="translate(-976 -549.499)">
    <path id="video-camera-alt" d="M22.9,6.538a1.97,1.97,0,0,0-2.077.188,1.009,1.009,0,0,0-.11.1L18.959,8.6A4.99,4.99,0,0,0,14,4H5A5,5,0,0,0,0,9v6a5.006,5.006,0,0,0,5,5h9a4.99,4.99,0,0,0,4.962-4.627l1.756,1.754a1.178,1.178,0,0,0,.107.092A1.985,1.985,0,0,0,24,15.632V8.314a1.972,1.972,0,0,0-1.1-1.775ZM14,18H5a3,3,0,0,1-3-3V9A3,3,0,0,1,5,6h9a3,3,0,0,1,3,3v6A3,3,0,0,1,14,18Zm5-5.417V11.394l3-3.028.025,7.238L19,12.582Z" transform="translate(976 545.498)" fill="#179f66"/>
  </g>
</svg>
