<svg xmlns="http://www.w3.org/2000/svg" width="23" height="23" viewBox="0 0 23 23">
  <g id="Group_9597" data-name="Group 9597" transform="translate(-211 -328)">
    <rect id="Rectangle_454" data-name="Rectangle 454" width="23" height="23" rx="3" transform="translate(211 328)" fill="#fff"/>
    <path id="heart-rate" d="M15.034,7.951a.94.94,0,0,1-.94.94H12.842a.312.312,0,0,0-.3.232s-1.054,4.549-1.06,4.571a1.2,1.2,0,0,1-1.148.835,1.178,1.178,0,0,1-1.126-.863l-1.767-7.6L5.772,12.405a1.191,1.191,0,0,1-1.1.87,1.155,1.155,0,0,1-1.142-.734c-.013-.031-1.026-3.5-1.026-3.5a.313.313,0,0,0-.277-.155H.94a.94.94,0,0,1,0-1.879H2.229A2.2,2.2,0,0,1,4.293,8.466l.3,1.032L6.337,2.872A1.2,1.2,0,0,1,7.5,2a1.178,1.178,0,0,1,1.118.863l1.723,7.41.372-1.606a2.2,2.2,0,0,1,2.125-1.656h1.253a.94.94,0,0,1,.94.94Z" transform="translate(214.934 330.729)" fill="#ef4f68"/>
  </g>
</svg>
