<svg xmlns="http://www.w3.org/2000/svg" width="25" height="25" viewBox="0 0 25 25">
  <g id="Group_9597" data-name="Group 9597" transform="translate(-211 -328)">
    <rect id="Rectangle_454" data-name="Rectangle 454" width="25" height="25" rx="3" transform="translate(211 328)" fill="#ef4f68"/>
    <path id="heart-rate" d="M16.411,8.5a1.026,1.026,0,0,1-1.026,1.026H14.017a.34.34,0,0,0-.33.253s-1.15,4.966-1.157,4.99a1.307,1.307,0,0,1-1.253.911,1.286,1.286,0,0,1-1.229-.942L8.12,6.44,6.3,13.358a1.3,1.3,0,0,1-1.2.95,1.261,1.261,0,0,1-1.247-.8c-.014-.034-1.12-3.816-1.12-3.816a.342.342,0,0,0-.3-.169H1.026a1.026,1.026,0,0,1,0-2.051H2.433A2.4,2.4,0,0,1,4.686,9.058l.329,1.126,1.9-7.233A1.305,1.305,0,0,1,8.19,2a1.286,1.286,0,0,1,1.22.942l1.881,8.088L11.7,9.278a2.406,2.406,0,0,1,2.32-1.807h1.368A1.026,1.026,0,0,1,16.411,8.5Z" transform="translate(215.294 331.162)" fill="#fff"/>
  </g>
</svg>
