<svg xmlns="http://www.w3.org/2000/svg" width="24" height="24" viewBox="0 0 24 24">
  <path id="file-edit" d="M12,7V.46a6.977,6.977,0,0,1,2.465,1.59l3.484,3.486A6.954,6.954,0,0,1,19.54,8H13a1,1,0,0,1-1-1Zm1.27,12.48A4.334,4.334,0,0,0,12,22.545V24h1.455a4.334,4.334,0,0,0,3.065-1.27l6.807-6.807a2.3,2.3,0,0,0-3.25-3.25L13.27,19.48ZM10,22.545a6.293,6.293,0,0,1,1.855-4.479l6.807-6.807a4.3,4.3,0,0,1,1.331-.9c0-.12-.009-.239-.017-.359H13a3,3,0,0,1-3-3V.024C9.839.013,9.678,0,9.515,0H5A5.006,5.006,0,0,0,0,5V19a5.006,5.006,0,0,0,5,5h5Z" fill="#222"/>
</svg>
