<svg xmlns="http://www.w3.org/2000/svg" width="23.983" height="24" viewBox="0 0 23.983 24">
  <path id="hospital-user_1_" data-name="hospital-user(1)" d="M19,18a2.5,2.5,0,1,1,2.5-2.5A2.5,2.5,0,0,1,19,18Zm4,6H15a1,1,0,0,1-.969-1.249,5.163,5.163,0,0,1,9.932,0A1,1,0,0,1,22.991,24Zm-10.9-1.749a6.98,6.98,0,0,1,3.206-4.2A4.455,4.455,0,0,1,16,12.17V5a5,5,0,0,0-5-5H5a5,5,0,0,0-5,5V19a5,5,0,0,0,5,5H11a4.99,4.99,0,0,0,1.147-.145,2.992,2.992,0,0,1-.051-1.6ZM6,19H5a1,1,0,0,1,0-2H6a1,1,0,0,1,0,2Zm0-4H5a1,1,0,0,1,0-2H6a1,1,0,0,1,0,2Zm2-5A1,1,0,0,1,7,9V8H6A1,1,0,0,1,6,6H7V5A1,1,0,1,1,9,5V6h1a1,1,0,0,1,0,2H9V9A1,1,0,0,1,8,10Zm3,9H10a1,1,0,0,1,0-2h1a1,1,0,0,1,0,2Zm0-4H10a1,1,0,0,1,0-2h1a1,1,0,0,1,0,2Z" transform="translate(-0.008)" fill="#3d386a"/>
</svg>
