<svg xmlns="http://www.w3.org/2000/svg" width="27.999" height="28.004" viewBox="0 0 27.999 28.004">
  <path id="messages" d="M15.166,0H5.833A5.84,5.84,0,0,0,0,5.829v15a2.507,2.507,0,0,0,3.9,2.087L8.52,19.829h6.646A5.84,5.84,0,0,0,21,14V5.829A5.84,5.84,0,0,0,15.166,0ZM28,10.5v15a2.506,2.506,0,0,1-3.9,2.088L19.479,24.5H12.833a5.8,5.8,0,0,1-4.271-1.89l.664-.443h5.94A8.177,8.177,0,0,0,23.333,14V5.829a8.316,8.316,0,0,0-.076-1.057A5.837,5.837,0,0,1,28,10.5Z" transform="translate(0 0.004)" fill="#49475f"/>
</svg>
