<svg xmlns="http://www.w3.org/2000/svg" width="60" height="60" viewBox="0 0 60 60">
  <g id="Group_9608" data-name="Group 9608" transform="translate(-1579 -130)">
    <rect id="Rectangle_430" data-name="Rectangle 430" width="60" height="60" rx="10" transform="translate(1579 130)" fill="#3d386a"/>
    <path id="paper-plane" d="M1.77,6.215A2.433,2.433,0,0,0,0,8.611a2.474,2.474,0,0,0,.771,1.71L4,13.548V20h6.448l3.265,3.267a2.4,2.4,0,0,0,1.706.713,2.438,2.438,0,0,0,.618-.08,2.4,2.4,0,0,0,1.726-1.689L24-.016ZM3.533,8.856l13.209-3.7L7,14.9V12.326Zm11.6,11.6L11.675,17H9.1l9.734-9.741Z" transform="translate(1597 149.02)" fill="#fff"/>
  </g>
</svg>
