<svg xmlns="http://www.w3.org/2000/svg" width="27.609" height="22.088" viewBox="0 0 27.609 22.088">
  <path id="video_call_FILL0_wght400_GRAD0_opsz24" d="M89.663-783.434h2.761v-4.141h4.141v-2.761H92.424v-4.141H89.663v4.141H85.522v2.761h4.141Zm-6.9,5.522a2.659,2.659,0,0,1-1.95-.811,2.659,2.659,0,0,1-.811-1.95v-16.566a2.659,2.659,0,0,1,.811-1.95,2.659,2.659,0,0,1,1.95-.811H99.327a2.658,2.658,0,0,1,1.95.811,2.659,2.659,0,0,1,.811,1.95v6.212l5.522-5.522v15.185l-5.522-5.522v6.212a2.659,2.659,0,0,1-.811,1.95,2.658,2.658,0,0,1-1.95.811Zm0-2.761H99.327v-16.566H82.761Zm0,0v0Z" transform="translate(-80 800)" fill="#fff"/>
</svg>
